<?xml version="1.0" encoding="utf-8"?>
<!-- Generator: Adobe Illustrator 24.0.2, SVG Export Plug-In . SVG Version: 6.00 Build 0)  -->
<svg version="1.1"
	 id="svg2" xmlns:cc="http://creativecommons.org/ns#" xmlns:dc="http://purl.org/dc/elements/1.1/" xmlns:inkscape="http://www.inkscape.org/namespaces/inkscape" xmlns:rdf="http://www.w3.org/1999/02/22-rdf-syntax-ns#" xmlns:sodipodi="http://sodipodi.sourceforge.net/DTD/sodipodi-0.dtd" xmlns:svg="http://www.w3.org/2000/svg"
	 xmlns="http://www.w3.org/2000/svg" xmlns:xlink="http://www.w3.org/1999/xlink" x="0px" y="0px" viewBox="0 0 275.5 262"
	 style="enable-background:new 0 0 275.5 262;" xml:space="preserve">
<style type="text/css">
	.st0{fill:#DD193B;}
	.st1{display:none;}
	.st2{display:inline;}
	.st3{clip-path:url(#SVGID_2_);}
</style>
<sodipodi:namedview  bordercolor="#666666" borderopacity="1" gridtolerance="10" guidetolerance="10" id="namedview4" inkscape:pageopacity="0" inkscape:pageshadow="2" inkscape:window-height="480" inkscape:window-width="640" objecttolerance="10" pagecolor="#ffffff">
	</sodipodi:namedview>
<g id="g10" transform="matrix(1.3333333,0,0,-1.3333333,0,503.264)" inkscape:groupmode="layer" inkscape:label="modomines_v3.0">
	<g id="g12" transform="translate(298.053,377.4483)">
		<path id="path14" class="st0" d="M-298.1,0v-196.5h51.5V-49h103.1v-147.5h52.1V0H-298.1z"/>
	</g>
	<path id="path16" class="st0" d="M77.6,303.6h51.5V180.9H77.6V303.6z"/>
	<g id="g18" class="st1">
		<g class="st2">
			<defs>
				<rect id="SVGID_1_" x="-436.7" y="-62.9" width="1109.1" height="503.3"/>
			</defs>
			<clipPath id="SVGID_2_">
				<use xlink:href="#SVGID_1_"  style="overflow:visible;"/>
			</clipPath>
			<g id="g20" class="st3">
				
					<text transform="matrix(0.75 0 0 -0.75 -307.5101 7.1963)" style="fill:#21201F; font-family:'Inter-SemiBold'; font-size:202.6667px;">m</text>
				
					<text transform="matrix(0.75 0 0 -0.75 -171.0145 7.1963)" style="fill:#21201F; font-family:'Inter-SemiBold'; font-size:202.6667px;">o</text>
				
					<text transform="matrix(0.75 0 0 -0.75 -78.5982 7.1963)" style="fill:#21201F; font-family:'Inter-SemiBold'; font-size:202.6667px;">d</text>
				
					<text transform="matrix(0.75 0 0 -0.75 17.1616 7.1963)" style="fill:#21201F; font-family:'Inter-SemiBold'; font-size:202.6667px;">o</text>
				
					<text transform="matrix(0.75 0 0 -0.75 115.0498 7.5003)" style="fill:#3A3A3B; font-family:'Inter-Regular'; font-size:202.6667px;">m</text>
				
					<text transform="matrix(0.75 0 0 -0.75 247.1377 7.5003)" style="fill:#3A3A3B; font-family:'Inter-Regular'; font-size:202.6667px;">i</text>
				
					<text transform="matrix(0.75 0 0 -0.75 283.1619 7.5003)" style="fill:#3A3A3B; font-family:'Inter-Regular'; font-size:202.6667px;">n</text>
				
					<text transform="matrix(0.75 0 0 -0.75 372.0816 7.5003)" style="fill:#3A3A3B; font-family:'Inter-Regular'; font-size:202.6667px;">e</text>
				
					<text transform="matrix(0.75 0 0 -0.75 460.5457 7.5003)" style="fill:#3A3A3B; font-family:'Inter-Regular'; font-size:202.6667px;">s</text>
			</g>
		</g>
	</g>
</g>
</svg>
